<svg width="268" height="44" viewBox="0 0 268 44" fill="none" xmlns="http://www.w3.org/2000/svg">
    <path fill-rule="evenodd" clip-rule="evenodd" d="M99.2646 30.8234H92.4608V28.792H99.3944C104.89 28.792 108.61 25.9165 108.61 21.5151V21.4316C108.61 16.7335 104.974 14.28 99.6495 14.28H84.5022V41.8662H82.3039V12.2486H99.8165C106.328 12.2486 110.808 15.1751 110.808 21.3018V21.3853C110.808 27.6093 105.438 30.8234 99.2646 30.8234V30.8234ZM70.4309 34.2739H72.889L77.6289 41.9682H75.2218L70.4309 34.2739ZM58.1498 14.549L41.138 41.9682H38.8562L57.1341 12.1373H59.2489L69.5079 28.7966H67.0128L58.1498 14.549V14.549ZM31.5144 12.3646H33.7128V41.9821H31.5144V12.3646V12.3646ZM2.19836 41.9821H0V12.3646H24.9889V14.396H2.19836V41.9821ZM18.9365 28.5693H8.20905V26.538H18.9411V28.5693H18.9365Z" fill="#EA1D5D"/>
    <path d="M150.138 27.5351H141.789V19.1869H140.398V27.5351H132.05V28.9264H140.398V37.2746H141.789V28.9264H150.138V27.5351Z" fill="#ACC1CC"/>
    <path d="M199.378 0H203.589C203.812 0 203.997 0.185515 203.997 0.408134V42.7566C203.997 42.9793 203.812 43.1648 203.589 43.1648H199.378C199.156 43.1648 198.97 42.9793 198.97 42.7566V0.408134C198.97 0.185515 199.156 0 199.378 0ZM228.425 34.8444V35.9158C228.425 36.3981 228.351 37.0242 228.165 37.8358C228.017 38.6104 227.609 39.4266 226.909 40.2012C226.245 40.9757 225.244 41.6806 223.88 42.2697C222.512 42.8262 220.666 43.1184 218.301 43.1184C215.935 43.1184 214.089 42.8216 212.721 42.2697C211.353 41.7177 210.393 41.0128 209.693 40.2012C209.03 39.4266 208.584 38.6104 208.436 37.7987C208.287 36.9871 208.176 36.3935 208.176 35.9158V11.7895C208.176 11.5669 208.362 11.3814 208.584 11.3814H212.796C213.018 11.3814 213.204 11.5669 213.204 11.7895V34.3667C213.204 35.1041 213.315 35.6607 213.426 36.0688C213.538 36.4769 213.76 36.9175 214.052 37.2886C214.386 37.6967 214.864 37.9889 215.532 38.2486C216.158 38.5083 217.048 38.6567 218.157 38.6567C219.265 38.6567 220.225 38.5083 220.893 38.2486C221.561 37.9889 222.076 37.6921 222.41 37.3257C222.781 36.9546 222.999 36.5883 223.11 36.143C223.221 35.6978 223.37 35.3685 223.37 34.3342V11.7895C223.37 11.5669 223.555 11.3814 223.778 11.3814H227.989C228.212 11.3814 228.397 11.5669 228.397 11.7895L228.434 34.849L228.425 34.8444ZM242.835 11.4185H245.683C245.942 11.4185 246.128 11.6782 246.054 11.9008L245.094 15.5972C245.057 15.7827 244.871 15.894 244.723 15.894H242.728C241.657 15.894 240.808 16.0424 240.14 16.3393C239.514 16.6361 238.958 16.9283 238.624 17.3364C238.253 17.7445 238.067 18.1109 237.961 18.5191C237.849 18.9643 237.812 19.3307 237.812 19.7017V42.7613C237.812 42.9839 237.627 43.1694 237.404 43.1694H233.156C232.933 43.1694 232.748 42.9839 232.748 42.7613V18.6628C232.748 18.2176 232.822 17.5915 233.007 16.7799C233.156 15.9682 233.564 15.1891 234.264 14.3774C234.927 13.6029 235.929 12.898 237.293 12.3089C238.587 11.7199 240.47 11.4231 242.835 11.4231V11.4185ZM184.709 11.4185C188.145 11.4185 190.696 12.0817 192.319 13.4499C193.91 14.818 194.722 16.5155 194.722 18.5515V35.9204C194.722 36.6207 194.573 37.3999 194.314 38.2486C194.054 39.0973 193.576 39.8765 192.834 40.5768C192.092 41.2771 191.062 41.8708 189.768 42.3485C188.474 42.8262 186.777 43.0488 184.704 43.0488C182.631 43.0488 180.933 42.7891 179.639 42.3485C178.345 41.9079 177.311 41.2771 176.574 40.5768C175.836 39.8765 175.317 39.0973 175.094 38.2486C174.834 37.3999 174.686 36.6207 174.686 35.9204V33.1469C174.686 31.6675 175.094 30.2993 175.832 29.0842C176.606 27.8644 177.677 26.9786 179.083 26.4962C179.783 26.2365 180.562 26.0139 181.485 25.6846C182.371 25.3507 183.257 25.0956 184.11 24.7617C184.959 24.4648 185.664 24.2051 186.327 23.9871C186.953 23.7274 187.361 23.6161 187.51 23.5419C187.658 23.4677 187.881 23.3564 188.099 23.208C188.359 23.0596 188.581 22.8369 188.836 22.619C189.096 22.3221 189.281 22.0299 189.425 21.696C189.611 21.325 189.685 20.9215 189.685 20.4391V19.3307C189.685 18.9226 189.611 18.5562 189.425 18.1109C189.277 17.6657 188.98 17.3364 188.614 16.9654C188.205 16.5943 187.691 16.3393 187.06 16.1166C186.429 15.894 185.618 15.7827 184.62 15.7827C182.663 15.7827 181.369 16.1908 180.627 17.0025C180.038 17.7028 179.667 18.5562 179.593 19.5533C179.593 19.7759 179.407 19.9243 179.185 19.9243H175.048C174.825 19.9243 174.64 19.7388 174.64 19.5162V18.482C174.64 17.4848 174.825 16.5619 175.196 15.7085C175.567 14.8551 176.156 14.0806 177.005 13.4174C177.817 12.7913 178.851 12.2347 180.145 11.9008C181.402 11.6411 182.918 11.4185 184.69 11.4185H184.709ZM189.773 27.011C189.699 27.4192 189.476 27.6742 189.184 27.8969C188.85 28.1195 188.595 28.2308 188.298 28.3421C187.709 28.5647 187.041 28.7873 186.378 29.0053C185.715 29.265 185.047 29.4877 184.458 29.6685C183.758 29.9283 183.053 30.1509 182.464 30.3689C181.981 30.5915 181.541 30.8512 181.096 31.1805C180.725 31.5144 180.432 31.8808 180.136 32.4002C179.839 32.9197 179.69 33.5087 179.69 34.2461C179.69 35.7256 180.061 36.8341 180.762 37.5715C181.462 38.2718 182.793 38.6799 184.718 38.6799C186.642 38.6799 188.006 38.2718 188.743 37.5344C189.444 36.7599 189.815 35.6885 189.815 34.2832L189.778 27.0018L189.773 27.011ZM257.987 11.4185C261.424 11.4185 263.975 12.0817 265.598 13.4499C267.189 14.818 268 16.5155 268 18.5515V35.9204C268 36.6207 267.852 37.3999 267.592 38.2486C267.332 39.0973 266.855 39.8765 266.113 40.5768C265.371 41.2771 264.341 41.8708 263.047 42.3485C261.753 42.8262 260.056 43.0488 257.982 43.0488C255.909 43.0488 254.212 42.7891 252.918 42.3485C251.624 41.9079 250.59 41.2771 249.852 40.5768C249.115 39.8765 248.595 39.0973 248.373 38.2486C248.113 37.3999 247.965 36.6207 247.965 35.9204V33.1469C247.965 31.6675 248.373 30.2993 249.11 29.0842C249.885 27.8644 250.956 26.9786 252.361 26.4962C253.062 26.2365 253.841 26.0139 254.764 25.6846C255.65 25.3507 256.535 25.0956 257.389 24.7617C258.237 24.4648 258.942 24.2051 259.606 23.9871C260.232 23.7274 260.64 23.6161 260.788 23.5419C260.937 23.4677 261.159 23.3564 261.377 23.208C261.637 23.0596 261.86 22.8369 262.115 22.619C262.374 22.3221 262.56 22.0299 262.704 21.696C262.889 21.325 262.963 20.9215 262.963 20.4391V19.3307C262.963 18.9226 262.889 18.5562 262.704 18.1109C262.555 17.6657 262.259 17.3364 261.892 16.9654C261.484 16.5943 260.969 16.3393 260.338 16.1166C259.708 15.894 258.896 15.7827 257.899 15.7827C255.942 15.7827 254.648 16.1908 253.906 17.0025C253.317 17.7028 252.946 18.5562 252.871 19.5533C252.871 19.7759 252.686 19.9243 252.463 19.9243H248.215C247.992 19.9243 247.807 19.7388 247.807 19.5162V18.482C247.807 17.4848 247.992 16.5619 248.363 15.7085C248.734 14.8551 249.323 14.0806 250.172 13.4174C250.984 12.7913 252.018 12.2347 253.312 11.9008C254.68 11.6411 256.192 11.4185 257.968 11.4185H257.987ZM263.014 27.011C262.94 27.4192 262.718 27.6742 262.425 27.8969C262.092 28.1195 261.836 28.2308 261.54 28.3421C260.951 28.5647 260.283 28.7873 259.62 29.0053C258.956 29.265 258.288 29.4877 257.699 29.6685C256.999 29.9283 256.294 30.1509 255.705 30.3689C255.223 30.5915 254.782 30.8512 254.337 31.1805C253.966 31.5144 253.674 31.8808 253.377 32.4002C253.08 32.8826 252.932 33.5087 252.932 34.2461C252.932 35.7256 253.303 36.8341 254.003 37.5715C254.703 38.2718 256.034 38.6799 257.959 38.6799C259.884 38.6799 261.247 38.2718 261.985 37.5344C262.685 36.7599 263.056 35.6885 263.056 34.2832L263.019 27.0018L263.014 27.011Z" fill="white"/>
</svg>
